<svg width="1920" height="200" viewBox="0 0 1920 200" xmlns="http://www.w3.org/2000/svg">
<path d="M0 0H1920V200H0V0Z" fill="#F5EFE6"/>
<path d="M0 148 L 5 136 L 14 151 L 18 137 L 26 145 L 35 150 L 42 143 L 48 140 L 53 146 L 58 143 L 64 134 L 70 145 L 80 140 L 88 141 L 95 141 L 105 150 L 115 145 L 124 138 L 134 144 L 144 143 L 151 144 L 161 146 L 166 160 L 170 149 L 178 145 L 184 150 L 189 150 L 199 131 L 209 145 L 213 143 L 221 150 L 228 150 L 234 149 L 242 144 L 249 149 L 254 142 L 258 140 L 263 153 L 271 141 L 279 147 L 287 140 L 291 150 L 301 144 L 307 141 L 312 145 L 320 142 L 324 150 L 333 148 L 338 145 L 346 148 L 354 145 L 358 145 L 368 141 L 376 146 L 386 141 L 394 147 L 402 151 L 409 143 L 419 143 L 426 150 L 433 148 L 438 133 L 446 145 L 450 141 L 454 134 L 464 142 L 470 150 L 478 142 L 486 149 L 496 147 L 501 144 L 507 146 L 517 140 L 526 141 L 536 137 L 544 142 L 550 139 L 557 158 L 565 140 L 575 148 L 582 143 L 586 142 L 593 144 L 603 147 L 612 148 L 619 138 L 623 149 L 627 153 L 634 148 L 642 148 L 646 134 L 655 143 L 663 143 L 667 157 L 675 148 L 681 143 L 687 137 L 696 150 L 702 150 L 710 137 L 718 145 L 722 143 L 727 147 L 736 144 L 746 150 L 755 148 L 764 141 L 769 137 L 778 147 L 786 143 L 791 150 L 797 148 L 807 143 L 817 144 L 827 142 L 833 142 L 841 146 L 845 141 L 854 142 L 864 145 L 869 145 L 875 140 L 880 143 L 886 148 L 893 149 L 898 142 L 908 142 L 912 142 L 918 146 L 928 136 L 935 140 L 940 143 L 947 145 L 957 139 L 964 137 L 974 144 L 982 146 L 992 148 L 996 141 L 1002 142 L 1008 143 L 1014 145 L 1022 141 L 1030 146 L 1034 148 L 1042 150 L 1051 153 L 1055 150 L 1063 145 L 1067 144 L 1076 146 L 1085 144 L 1090 146 L 1097 150 L 1102 149 L 1109 148 L 1115 152 L 1123 150 L 1130 147 L 1138 147 L 1148 142 L 1154 148 L 1162 142 L 1171 140 L 1176 145 L 1184 141 L 1193 151 L 1200 156 L 1209 140 L 1219 141 L 1224 142 L 1233 148 L 1241 143 L 1245 151 L 1254 148 L 1262 145 L 1269 149 L 1277 146 L 1285 147 L 1294 147 L 1304 143 L 1310 148 L 1315 144 L 1324 144 L 1330 142 L 1335 146 L 1344 146 L 1350 148 L 1354 143 L 1361 149 L 1365 149 L 1369 145 L 1376 146 L 1385 148 L 1390 150 L 1397 140 L 1406 150 L 1415 142 L 1420 149 L 1427 149 L 1431 141 L 1436 145 L 1443 145 L 1449 149 L 1455 141 L 1464 149 L 1469 160 L 1473 140 L 1478 140 L 1483 142 L 1487 149 L 1494 144 L 1499 149 L 1508 141 L 1513 134 L 1519 149 L 1526 146 L 1531 141 L 1541 149 L 1551 150 L 1555 149 L 1561 148 L 1567 141 L 1573 140 L 1583 148 L 1592 147 L 1599 142 L 1608 144 L 1616 147 L 1626 146 L 1636 145 L 1641 147 L 1650 146 L 1657 141 L 1663 144 L 1671 144 L 1679 146 L 1686 148 L 1695 147 L 1702 147 L 1706 141 L 1712 150 L 1719 148 L 1726 148 L 1735 145 L 1740 141 L 1746 141 L 1756 147 L 1762 149 L 1770 149 L 1774 143 L 1780 142 L 1789 139 L 1793 148 L 1798 150 L 1805 141 L 1813 144 L 1820 136 L 1826 139 L 1833 157 L 1842 148 L 1848 141 L 1852 148 L 1860 149 L 1865 148 L 1872 144 L 1879 144 L 1883 149 L 1887 143 L 1893 147 L 1898 138 L 1905 147 L 1912 143 L 1920 145 V0 H0 Z" fill="#111111"/>
</svg>