<svg width="1920" height="200" viewBox="0 0 1920 200" fill="none" xmlns="http://www.w3.org/2000/svg">
<path d="M0 148L5 136L14 151L18 137L26 145L35 150L42 143L48 140L53 146L58 143L64 134L70 145L80 140L88 141H95L105 150L115 145L124 138L134 144L144 143L151 144L161 146L166 160L170 149L178 145L184 150H189L199 131L209 145L213 143L221 150H228L234 149L242 144L249 149L254 142L258 140L263 153L271 141L279 147L287 140L291 150L301 144L307 141L312 145L320 142L324 150L333 148L338 145L346 148L354 145H358L368 141L376 146L386 141L394 147L402 151L409 143H419L426 150L433 148L438 133L446 145L450 141L454 134L464 142L470 150L478 142L486 149L496 147L501 144L507 146L517 140L526 141L536 137L544 142L550 139L557 158L565 140L575 148L582 143L586 142L593 144L603 147L612 148L619 138L623 149L627 153L634 148H642L646 134L655 143H663L667 157L675 148L681 143L687 137L696 150H702L710 137L718 145L722 143L727 147L736 144L746 150L755 148L764 141L769 137L778 147L786 143L791 150L797 148L807 143L817 144L827 142H833L841 146L845 141L854 142L864 145H869L875 140L880 143L886 148L893 149L898 142H908H912L918 146L928 136L935 140L940 143L947 145L957 139L964 137L974 144L982 146L992 148L996 141L1002 142L1008 143L1014 145L1022 141L1030 146L1034 148L1042 150L1051 153L1055 150L1063 145L1067 144L1076 146L1085 144L1090 146L1097 150L1102 149L1109 148L1115 152L1123 150L1130 147H1138L1148 142L1154 148L1162 142L1171 140L1176 145L1184 141L1193 151L1200 156L1209 140L1219 141L1224 142L1233 148L1241 143L1245 151L1254 148L1262 145L1269 149L1277 146L1285 147H1294L1304 143L1310 148L1315 144H1324L1330 142L1335 146H1344L1350 148L1354 143L1361 149H1365L1369 145L1376 146L1385 148L1390 150L1397 140L1406 150L1415 142L1420 149H1427L1431 141L1436 145H1443L1449 149L1455 141L1464 149L1469 160L1473 140H1478L1483 142L1487 149L1494 144L1499 149L1508 141L1513 134L1519 149L1526 146L1531 141L1541 149L1551 150L1555 149L1561 148L1567 141L1573 140L1583 148L1592 147L1599 142L1608 144L1616 147L1626 146L1636 145L1641 147L1650 146L1657 141L1663 144H1671L1679 146L1686 148L1695 147H1702L1706 141L1712 150L1719 148H1726L1735 145L1740 141H1746L1756 147L1762 149H1770L1774 143L1780 142L1789 139L1793 148L1798 150L1805 141L1813 144L1820 136L1826 139L1833 157L1842 148L1848 141L1852 148L1860 149L1865 148L1872 144H1879L1883 149L1887 143L1893 147L1898 138L1905 147L1912 143L1920 145V0H0V148Z" fill="#111111"/>
</svg>
