<?xml version="1.0" encoding="UTF-8"?>
<svg
  version="1.1"
  width="800"
  height="533.33331"
  viewBox="0 0 800 533.33331"
  xmlns="http://www.w3.org/2000/svg">
  <!-- Oryginalna poszarpana krawędź, złagodzona ~35% (scale Y wokół linii podarcia) -->
  <g transform="matrix(0.13333333,0,0,-0.13333333,0,533.33333)">
    <g transform="translate(3000 3350) scale(1 0.65) translate(-3000 -3350)">
      <path
        id="torn-fill"
        d="m 6000,4000 v -816.3 c -14.8,-0.9 -29.7,-4 -44.6,-10.4 -45.7,17 -91.7,-24.8 -137.9,-13.5 -46.1,-1.5 -92.2,-20.8 -138.1,-29.3 -45.9,3 -91.7,-42.4 -137,-26.3 -39.2,-19.9 -80.3,-20.7 -120.8,-10.9 -40.7,6.8 -81,-5.6 -119,-22.2 -26.5,-30.6 -52.9,-28.5 -79.6,-13 -26.9,-0.8 -53.9,0.6 -81.9,0.6 -49.8,22.4 -100.1,5.3 -150.4,-2.3 -50.3,-10.6 -100.5,21.1 -150.1,4.4 -34.1,8.4 -67.8,12.4 -101.2,17.9 -33.7,-2.6 -67.1,8 -101.1,18.5 -22.2,-10.7 -44.3,12.4 -66.5,6.7 -22,11.8 -44.2,18.2 -66.6,7.3 -23.5,-3.9 -47.5,-11 -71.6,9.8 -24,6.9 -48.3,14.1 -72.1,1.9 -27,0.3 -52.8,14 -78.5,-8 -25.8,-20.6 -51.7,-16 -79.2,-4.4 -32.8,-0.5 -65.2,-5.6 -97.4,-11.9 -32.2,-2.4 -64.2,-4.7 -96.4,-18.3 -28,-6 -77.6,-26.6 -106.8,-9.9 -6.3,11.3 -16.8,14 -19.4,10.8 -23.6,-5.3 -39.7,13.2 -61.6,15.3 -17.5,-9.5 -24.5,3.9 -45.4,26.4 -17.5,14.7 -39.1,2.4 -60.6,2.6 -21.6,10 -43.2,10.3 -60.9,-3.2 -40.1,0 -79.2,15.4 -117.9,-0.2 -38.8,7.6 -77.1,6 -115.9,-10.9 -44.9,-27.1 -90,-3.9 -135,-21 -45.1,2.8 -90.3,4.1 -135.7,-16.1 -58.1,-23.8 -117.8,-28 -177.8,-8.2 -60.1,-15.7 -120.7,12.3 -180.6,9.4 -59.9,11.7 -119.1,6.1 -176.7,18.3 -38.6,-14.1 -77.1,-8.3 -115.9,13.1 -38.6,5.4 -77.4,18.3 -116.3,3.2 -35.6,4 -52.5,-16.8 -88.1,-25.8 -49.2,-28.5 -98.1,8.7 -147.4,9 -49.1,-8.5 -98.2,26.8 -147.9,4.1 -19,-23.1 -32,-26.4 -50.5,-13.7 -20,-6.5 -42.5,8 -65.2,-2.6 -22.7,1.5 -45.5,-6.3 -66.3,3.7 -48.1,-16.6 -99.1,-14 -150.1,-21.4 -51.1,-9.2 -102.2,-18.2 -150.2,-2.1 -21.6,3.9 -41.8,28.2 -62,25.3 -20.2,-11.8 -40.4,39.2 -61.6,23.8 -21.2,20.1 -45.1,4.2 -68.9,2.9 -23.8,-1.3 -47.8,3.1 -69.8,-3.5 -23.2,17 -48.8,20.1 -74.2,2.7 -25.4,-10 -50.7,-0.3 -73.6,-5 -20.6,-27 -41.5,-25.6 -62.6,-17.5 -21,-17.7 -42.1,-15.7 -62.998,-18.7 -23.403,-11.9 -46.704,3.5 -70.098,-12.1 -23.305,-19.8 -46.805,11.8 -70.305,-9.6 -27.5,-6 -54.898,-13.2 -81.601,-18.2 -26.5,-7.1 -52.598,-37.7 -77.399,-30 -28.097,-35.4 -52.797,-12.7 -77.898,-17.2 -25.199,7.7 -51.203,20 -82.102,9.8 -30.504,16.3 -53.097,-15.1 -78.797,10.8 -20.402,-30.4 -33.504,17.2 -51.004,28.3 -18.5,-7.4 -32.996,48.5 -50.703,52 -21.699,5 -44.297,26.7 -72.797,11.9 -20.398,-4.3 -45.199,20 -69.796,-3.8 -24.602,12 -48.903,9.2 -68.602,5 -19.801,-10.7 -26.398,33.4 -48.0977,11.9 -28.9023,1.4 -55,0 -82.9023,-5.5 V 4000 h 6000"
        fill="#f7f2eb" />
      <path
        id="torn-edge-detail"
        d="M 6000,853.199 V 0 H 0 v 891.102 c 12.1992,2.699 24,11.5 37.6992,21.398 28,11.602 55.8008,-19.199 84.1988,2.102 38.407,-14.704 78.801,44.097 118.903,13.699 40.199,-0.199 80.297,23.5 118.301,20.898 44.097,20.903 86.996,56.001 130.199,14 43.101,-6.301 86.597,13 131.301,1.801 51.699,2.398 103.796,6.398 155.097,-11.602 51.496,-12.898 102.403,21.903 151.305,-38.199 47.797,24.301 95.896,-4.199 144.496,-23.898 48.6,2.199 97.6,-3.602 147.3,-7.301 24.6,-10 48.7,-24.602 72.9,-4.301 24.3,-16.301 48.4,-0.5 73.2,-1.199 28,12.602 55.5,17.602 83.2,-7.5 27.5,4 55.2,39.398 83.4,-6 44.6,11.398 89,3.102 133.4,0.699 44.6,-2.097 89,-0.699 133.4,-0.5 48.9,-41.699 98,-9 147.3,3.199 49,-24.597 98.3,8.704 147.4,10 49.2,15.602 98,36.704 146.4,15.301 25.6,36.801 50.2,-14.5 74.9,6.903 24.4,-58 49.2,30.597 74.6,2.097 18.4,-30.097 39.1,-21.301 57,1.102 34.6,21.097 70.7,-15.801 107,23 36.4,9 73.1,16.801 109.3,13.699 37.2,2.199 73.7,-31.102 110.4,12.199 36.5,3.102 73.1,39.301 110.1,12.699 44.7,12.403 89,3.403 133.2,7 44.3,-3.699 88.5,11.403 133.4,5.102 44.9,-39.602 90,36.5 134.9,-0.301 44.9,14.301 89.8,4 134.7,0.301 24.5,-4.199 43.9,-9 62.6,-13 18.7,-17.699 36.4,-14.699 57,-33.199 20.3,2.801 40.9,-51.199 61.8,-39.102 20.7,11.301 41.8,-14 63.1,-36.801 26.2,-6.296 53.6,-22.597 81.4,-29.5 27.8,4.5 56.3,-8.5 84.8,-18.199 27.4,14.699 58.9,-12.699 90.8,-22.801 31.7,-10 63.9,19.301 92.7,-7.296 20.9,6.796 37.8,11.898 58.9,13.597 29.6,23.301 31.8,18.102 50.4,-30.898 15.1,14.898 31,-18.903 46.9,-46.903 15.8,-5.898 31.6,-71.296 46.1,-48.296 14.8,-16.102 28,-60.301 42.5,-57.102 14.3,-33.5 29.7,-11.602 48.9,-50.199 19.9,-43.801 44.9,-16.403 70.3,-18.301 25.4,-32.898 51.5,-23.102 73.2,8.801 31.1,-24.903 61.2,19 91.4,20.097 30.3,-6.898 60.7,2.903 92.1,18.204 29.6,-30.102 59.4,35.097 89,13.796 29.6,-4.097 59.2,13.403 88.5,15.801 43.3,27.699 86.8,29.102 130.2,26.403 43.3,-32.204 86.4,12.597 128.9,30.398 42.8,-24.398 85.5,57.199 127,45.699 41.7,-8.801 82.4,15 121.5,59.699 31.1,-20.199 39.9,38.801 75.5,24.301 26.8,-15.699 53.2,-22.5 79.8,7.102 26.5,-22.403 53.1,-39.903 80.5,5.801 40.5,-42 79.8,16.296 118.9,7.898 38.9,3.898 77.7,-23.5 117.3,18.5 34.8,-36.199 68.9,50.199 103.2,9.5 34.2,-46 68.5,34.398 103.9,1.398 0.7,0.102 1.3,0.204 2,0.301"
        fill="#f7f2eb" />
    </g>
  </g>
</svg>
