<svg width="1920" height="685" viewBox="0 0 1920 685" fill="none" xmlns="http://www.w3.org/2000/svg">
<path d="M0 673L5 661L14 676L18 662L26 670L35 675L42 668L48 665L53 671L58 668L64 659L70 670L80 665L88 666H95L105 675L115 670L124 663L134 669L144 668L151 669L161 671L166 685L170 674L178 670L184 675H189L199 656L209 670L213 668L221 675H228L234 674L242 669L249 674L254 667L258 665L263 678L271 666L279 672L287 665L291 675L301 669L307 666L312 670L320 667L324 675L333 673L338 670L346 673L354 670H358L368 666L376 671L386 666L394 672L402 676L409 668H419L426 675L433 673L438 658L446 670L450 666L454 659L464 667L470 675L478 667L486 674L496 672L501 669L507 671L517 665L526 666L536 662L544 667L550 664L557 683L565 665L575 673L582 668L586 667L593 669L603 672L612 673L619 663L623 674L627 678L634 673H642L646 659L655 668H663L667 682L675 673L681 668L687 662L696 675H702L710 662L718 670L722 668L727 672L736 669L746 675L755 673L764 666L769 662L778 672L786 668L791 675L797 673L807 668L817 669L827 667H833L841 671L845 666L854 667L864 670H869L875 665L880 668L886 673L893 674L898 667H908H912L918 671L928 661L935 665L940 668L947 670L957 664L964 662L974 669L982 671L992 673L996 666L1002 667L1008 668L1014 670L1022 666L1030 671L1034 673L1042 675L1051 678L1055 675L1063 670L1067 669L1076 671L1085 669L1090 671L1097 675L1102 674L1109 673L1115 677L1123 675L1130 672H1138L1148 667L1154 673L1162 667L1171 665L1176 670L1184 666L1193 676L1200 681L1209 665L1219 666L1224 667L1233 673L1241 668L1245 676L1254 673L1262 670L1269 674L1277 671L1285 672H1294L1304 668L1310 673L1315 669H1324L1330 667L1335 671H1344L1350 673L1354 668L1361 674H1365L1369 670L1376 671L1385 673L1390 675L1397 665L1406 675L1415 667L1420 674H1427L1431 666L1436 670H1443L1449 674L1455 666L1464 674L1469 685L1473 665H1478L1483 667L1487 674L1494 669L1499 674L1508 666L1513 659L1519 674L1526 671L1531 666L1541 674L1551 675L1555 674L1561 673L1567 666L1573 665L1583 673L1592 672L1599 667L1608 669L1616 672L1626 671L1636 670L1641 672L1650 671L1657 666L1663 669H1671L1679 671L1686 673L1695 672H1702L1706 666L1712 675L1719 673H1726L1735 670L1740 666H1746L1756 672L1762 674H1770L1774 668L1780 667L1789 664L1793 673L1798 675L1805 666L1813 669L1820 661L1826 664L1833 682L1842 673L1848 666L1852 673L1860 674L1865 673L1872 669H1879L1883 674L1887 668L1893 672L1898 663L1905 672L1912 668L1920 670V0H0V673Z" fill="white"/>
</svg>
