<svg width="1920" height="142" viewBox="0 0 1920 142" fill="none" xmlns="http://www.w3.org/2000/svg">
  <path d="M0 90L5 78L14 93L18 79L26 87L35 92L42 85L48 82L53 88L58 85L64 76L70 87L80 82L88 83H95L105 92L115 87L124 80L134 86L144 85L151 86L161 88L166 102L170 91L178 87L184 92H189L199 73L209 87L213 85L221 92H228L234 91L242 86L249 91L254 84L258 82L263 95L271 83L279 89L287 82L291 92L301 86L307 83L312 87L320 84L324 92L333 90L338 87L346 90L354 87H358L368 83L376 88L386 83L394 89L402 93L409 85H419L426 92L433 90L438 75L446 87L450 83L454 76L464 84L470 92L478 84L486 91L496 89L501 86L507 88L517 82L526 83L536 79L544 84L550 81L557 100L565 82L575 90L582 85L586 84L593 86L603 89L612 90L619 80L623 91L627 95L634 90H642L646 76L655 85H663L667 99L675 90L681 85L687 79L696 92H702L710 79L718 87L722 85L727 89L736 86L746 92L755 90L764 83L769 79L778 89L786 85L791 92L797 90L807 85L817 86L827 84H833L841 88L845 83L854 84L864 87H869L875 82L880 85L886 90L893 91L898 84H908H912L918 88L928 78L935 82L940 85L947 87L957 81L964 79L974 86L982 88L992 90L996 83L1002 84L1008 85L1014 87L1022 83L1030 88L1034 90L1042 92L1051 95L1055 92L1063 87L1067 86L1076 88L1085 86L1090 88L1097 92L1102 91L1109 90L1115 94L1123 92L1130 89H1138L1148 84L1154 90L1162 84L1171 82L1176 87L1184 83L1193 93L1200 98L1209 82L1219 83L1224 84L1233 90L1241 85L1245 93L1254 90L1262 87L1269 91L1277 88L1285 89H1294L1304 85L1310 90L1315 86H1324L1330 84L1335 88H1344L1350 90L1354 85L1361 91H1365L1369 87L1376 88L1385 90L1390 92L1397 82L1406 92L1415 84L1420 91H1427L1431 83L1436 87H1443L1449 91L1455 83L1464 91L1469 102L1473 82H1478L1483 84L1487 91L1494 86L1499 91L1508 83L1513 76L1519 91L1526 88L1531 83L1541 91L1551 92L1555 91L1561 90L1567 83L1573 82L1583 90L1592 89L1599 84L1608 86L1616 89L1626 88L1636 87L1641 89L1650 88L1657 83L1663 86H1671L1679 88L1686 90L1695 89H1702L1706 83L1712 92L1719 90H1726L1735 87L1740 83H1746L1756 89L1762 91H1770L1774 85L1780 84L1789 81L1793 90L1798 92L1805 83L1813 86L1820 78L1826 81L1833 99L1842 90L1848 83L1852 90L1860 91L1865 90L1872 86H1879L1883 91L1887 85L1893 89L1898 80L1905 89L1912 85L1920 87V0H0L0 90Z" fill="#ffffff"/>
</svg>
