<svg width="1920" height="200" viewBox="0 0 1920 200" xmlns="http://www.w3.org/2000/svg">
<path d="M0 54 L 7 51 L 13 60 L 18 52 L 27 52 L 32 49 L 40 59 L 47 51 L 53 56 L 61 58 L 65 61 L 74 55 L 78 61 L 86 59 L 95 54 L 100 57 L 107 61 L 114 60 L 118 57 L 124 55 L 129 55 L 136 54 L 143 49 L 149 54 L 156 58 L 160 60 L 167 61 L 173 59 L 182 57 L 187 54 L 193 57 L 200 60 L 208 53 L 214 60 L 218 53 L 222 57 L 231 52 L 240 54 L 246 56 L 253 53 L 258 64 L 266 52 L 272 56 L 280 54 L 286 54 L 294 60 L 299 57 L 305 55 L 313 56 L 319 53 L 324 59 L 331 50 L 338 56 L 347 60 L 354 57 L 360 51 L 367 51 L 374 50 L 381 60 L 385 57 L 391 55 L 398 59 L 407 58 L 413 60 L 420 49 L 425 60 L 431 53 L 438 51 L 447 51 L 456 54 L 460 55 L 466 55 L 471 53 L 479 60 L 484 53 L 492 67 L 497 53 L 503 46 L 510 54 L 515 51 L 521 59 L 528 54 L 534 53 L 541 58 L 547 59 L 556 64 L 563 64 L 572 50 L 581 57 L 587 53 L 593 53 L 601 54 L 610 60 L 615 69 L 624 50 L 631 50 L 640 50 L 646 49 L 654 55 L 660 56 L 666 55 L 673 47 L 682 60 L 690 56 L 694 54 L 701 55 L 710 54 L 719 51 L 726 50 L 734 55 L 739 63 L 748 54 L 752 42 L 758 53 L 766 52 L 772 60 L 781 58 L 790 52 L 799 51 L 807 56 L 813 50 L 818 57 L 823 65 L 829 58 L 838 52 L 843 51 L 850 51 L 859 60 L 863 50 L 868 52 L 873 51 L 881 53 L 886 55 L 894 43 L 899 52 L 903 60 L 908 50 L 913 59 L 918 56 L 926 51 L 933 57 L 941 64 L 946 69 L 954 54 L 958 50 L 965 56 L 972 48 L 978 52 L 984 59 L 992 55 L 1000 58 L 1008 59 L 1017 51 L 1026 58 L 1031 56 L 1036 56 L 1043 56 L 1047 55 L 1056 54 L 1061 60 L 1065 51 L 1069 56 L 1074 64 L 1082 55 L 1089 55 L 1096 50 L 1104 54 L 1112 68 L 1119 53 L 1125 58 L 1131 61 L 1139 59 L 1148 68 L 1157 51 L 1166 54 L 1172 43 L 1180 60 L 1185 60 L 1189 60 L 1196 53 L 1205 55 L 1213 49 L 1218 52 L 1222 63 L 1231 56 L 1238 61 L 1242 55 L 1248 60 L 1255 58 L 1259 53 L 1267 48 L 1272 52 L 1278 59 L 1287 57 L 1295 53 L 1304 45 L 1311 50 L 1315 55 L 1323 56 L 1330 43 L 1336 52 L 1344 57 L 1350 51 L 1354 53 L 1361 56 L 1370 49 L 1374 58 L 1382 58 L 1388 60 L 1393 46 L 1398 68 L 1402 52 L 1411 57 L 1419 59 L 1427 60 L 1435 55 L 1444 46 L 1451 57 L 1457 64 L 1461 54 L 1465 50 L 1471 51 L 1475 59 L 1482 57 L 1491 50 L 1499 68 L 1506 48 L 1513 51 L 1519 51 L 1524 53 L 1531 58 L 1536 55 L 1542 56 L 1548 60 L 1557 60 L 1563 51 L 1570 64 L 1578 52 L 1586 60 L 1592 60 L 1599 52 L 1603 54 L 1612 55 L 1621 60 L 1625 60 L 1633 53 L 1638 53 L 1645 46 L 1650 51 L 1654 58 L 1663 57 L 1671 52 L 1676 63 L 1684 52 L 1688 56 L 1697 53 L 1705 54 L 1712 53 L 1718 57 L 1723 55 L 1731 57 L 1737 56 L 1744 52 L 1752 52 L 1756 60 L 1762 58 L 1771 58 L 1777 51 L 1783 57 L 1788 52 L 1795 55 L 1802 50 L 1808 53 L 1812 54 L 1816 60 L 1821 56 L 1830 52 L 1837 57 L 1841 43 L 1849 59 L 1853 46 L 1857 53 L 1865 61 L 1873 63 L 1881 53 L 1887 56 L 1892 59 L 1901 60 L 1905 58 L 1913 62 L 1917 60 L 1920 55 V200 H0 Z" fill="#ffffff"/>
</svg>